<svg width="200" height="200" viewBox="0 0 200 200" fill="none" xmlns="http://www.w3.org/2000/svg">
<g clip-path="url(#clip0_2_41)">
<rect width="200" height="200" fill="#D8F3DC"/>
<circle cx="99.906" cy="100.362" r="15" transform="rotate(45 99.906 100.362)" stroke="#40916C" stroke-width="5"/>
<path d="M65.3234 119.024C65.3234 119.024 38.8943 131.875 29.913 141.378C20.9317 150.882 51.1951 178.064 58.897 170.362C66.599 162.66 81.5127 135.213 81.5127 135.213C91.5309 110.572 73.8764 114.997 65.3234 119.024Z" stroke="#40916C" stroke-width="3"/>
<path d="M134.489 81.7003C134.489 81.7003 160.918 68.8493 169.899 59.3458C178.88 49.8423 148.617 22.6598 140.915 30.3618C133.213 38.0637 118.299 65.511 118.299 65.511C108.281 90.1518 125.936 85.7273 134.489 81.7003Z" stroke="#40916C" stroke-width="3"/>
<path d="M119.275 135.652C119.275 135.652 132.126 162.081 141.629 171.062C151.133 180.043 178.315 149.78 170.613 142.078C162.911 134.376 135.464 119.462 135.464 119.462C110.823 109.444 115.248 127.099 119.275 135.652Z" stroke="#40916C" stroke-width="3"/>
<path d="M80.5372 65.0724C80.5372 65.0724 67.6861 38.6433 58.1826 29.662C48.6791 20.6807 21.4966 50.944 29.1986 58.646C36.9006 66.348 64.3479 81.2617 64.3479 81.2617C88.9886 91.2798 84.5641 73.6253 80.5372 65.0724Z" stroke="#40916C" stroke-width="3"/>
<path d="M160.886 138.094C152.638 151.734 140.119 162.295 125.4 168.04C125.11 167.271 124.254 166.879 123.481 167.161C114.089 170.6 103.824 172.048 93.2302 171.048C82.6363 170.047 72.8244 166.702 64.2413 161.567C63.535 161.144 62.6211 161.37 62.1922 162.07C48.8089 153.672 38.4886 140.954 32.9397 126.01C33.7126 125.733 34.1193 124.883 33.8488 124.106C30.5698 114.684 29.2133 104.399 30.2161 93.7803C31.2189 83.162 34.4771 73.3127 39.462 64.671C39.8734 63.9579 39.6329 63.0475 38.9256 62.63C47.1741 48.9896 59.6929 38.4287 74.4119 32.6845C74.7021 33.4527 75.5575 33.8456 76.3305 33.5627C85.7234 30.1246 95.988 28.6761 106.582 29.6766C117.176 30.6771 126.988 34.0217 135.571 39.1575C136.277 39.5802 137.191 39.3544 137.62 38.6542C151.003 47.0524 161.323 59.7704 166.872 74.7138C166.099 74.9916 165.693 75.8408 165.963 76.6183C169.242 86.0405 170.599 96.3256 169.596 106.944C168.593 117.562 165.335 127.411 160.35 136.053C159.939 136.766 160.179 137.677 160.886 138.094Z" stroke="#95D5B2" stroke-width="3" stroke-linecap="round" stroke-dasharray="100 80"/>
</g>
<defs>
<clipPath id="clip0_2_41">
<rect width="200" height="200" fill="white"/>
</clipPath>
</defs>
</svg>
