<svg width="200" height="200" viewBox="0 0 200 200" fill="none" xmlns="http://www.w3.org/2000/svg">
<g clip-path="url(#clip0_2_44)">
<rect width="200" height="200" fill="#D8F3DC"/>
<circle cx="100.306" cy="100.439" r="15" transform="rotate(45 100.306 100.439)" stroke="#A3A3A3" stroke-width="5"/>
<path d="M65.7233 119.101C65.7233 119.101 39.2942 131.952 30.3129 141.455C21.3316 150.959 51.595 178.141 59.2969 170.439C66.9989 162.737 81.9126 135.29 81.9126 135.29C91.9308 110.649 74.2763 115.074 65.7233 119.101Z" stroke="#A3A3A3" stroke-width="3"/>
<path d="M134.888 81.777C134.888 81.777 161.318 68.926 170.299 59.4225C179.28 49.919 149.017 22.7365 141.315 30.4384C133.613 38.1404 118.699 65.5877 118.699 65.5877C108.681 90.2285 126.335 85.8039 134.888 81.777Z" stroke="#A3A3A3" stroke-width="3"/>
<path d="M119.675 135.728C119.675 135.728 132.526 162.158 142.029 171.139C151.533 180.12 178.715 149.857 171.013 142.155C163.311 134.453 135.864 119.539 135.864 119.539C111.223 109.521 115.648 127.175 119.675 135.728Z" stroke="#A3A3A3" stroke-width="3"/>
<path d="M80.937 65.1491C80.937 65.1491 68.086 38.7199 58.5825 29.7387C49.079 20.7574 21.8964 51.0207 29.5984 58.7227C37.3004 66.4247 64.7477 81.3383 64.7477 81.3383C89.3885 91.3565 84.9639 73.702 80.937 65.1491Z" stroke="#A3A3A3" stroke-width="3"/>
</g>
<defs>
<clipPath id="clip0_2_44">
<rect width="200" height="200" fill="white"/>
</clipPath>
</defs>
</svg>
